<svg width="100" height="70" xmlns="http://www.w3.org/2000/svg">
 <defs>
  <style type="text/css">.land
			{
				fill: #CCCCCC;
				fill-opacity: 1;
				stroke:white;
				stroke-opacity: 1;
				stroke-width:0.5;
			}</style>
  <!-- All areas are listed in the line below. You can use this list in your script. -->
  <!--{id:"BR-AC"},{id:"BR-AL"},{id:"BR-AM"},{id:"BR-AP"},{id:"BR-BA"},{id:"BR-CE"},{id:"BR-DF"},{id:"BR-ES"},{id:"BR-GO"},{id:"BR-MA"},{id:"BR-MG"},{id:"BR-MS"},{id:"BR-MT"},{id:"BR-PA"},{id:"BR-PB"},{id:"BR-PE"},{id:"BR-PI"},{id:"BR-PR"},{id:"BR-RJ"},{id:"BR-RN"},{id:"BR-RO"},{id:"BR-RR"},{id:"BR-RS"},{id:"BR-SC"},{id:"BR-SE"},{id:"BR-SP"},{id:"BR-TO"}-->
 </defs>
 <g>
  <title>background</title>
  <rect fill="none" id="canvas_background" height="72" width="102" y="-1" x="-1"/>
 </g>
 <g>
  <title>Layer 1</title>
  <path d="m70.3,64.01l-3.93,-2.37l-1.48,0.82l-0.01,2.13l-1.8,-1.17l0.04,-1.41l1.28,-1.69l1.18,-0.2l0.53,-1.31l0.15,-3.75l0.73,-1.86l3.34,-2l-0.88,-2.34l-3.35,-0.34l-2.11,0.4l-7.86,-1.6l-7.32,-9.84l-2.28,-0.95l-1.37,-1.55l-5.56,-3.54l-1.81,0.34l-0.09,0.48l-1.6,-0.19l-1,-2.44l-4.74,-2.32l-6.92,0.39l-1.91,-1.15l-2.57,0.36l-1.63,-0.98l-3.08,0.03l0.15,-0.93l-1.35,-0.58l-0.56,0.81l-3.26,1.16l-3.52,-0.39l0,0l2.19,-5.02l-0.58,-3.25l0.38,-5.76l0.96,-1.75l0,0l4.87,-0.34l1.06,0.24l2.34,1.92l5.03,-0.54l5.29,1.68l4.26,0.36l2.76,2.22l8.01,0.29l1.33,1.9l2.71,-1.76l-0.85,-2.99l1.41,-2.36l2,-1.14l3.57,0.4l1.87,-0.97l1.32,-2.35l1.53,-0.65l3.34,0.65l5.92,-0.9l4.16,3l2.67,0.77l4.7,-3.56l1.56,-0.57l0.87,0.46l2.07,-0.68l5.24,0.03l0,0l-0.39,1.32l0.44,2.04l-1.5,1.14l-0.98,-0.48l-0.25,1.31l2.28,2.6l-1.01,2.29l-0.16,2.32l0.86,1.16l0.26,5.86l0.75,0.75l0.77,-0.51l0.45,1.59l-0.9,-0.22l-1.19,0.63l-0.34,3.84l0.57,2.59l-0.57,0.75l1.22,3.8l-1.38,6.35l-1.71,4.68l-0.7,-0.86l0.21,-0.97l-0.92,-1.18l-0.26,0.33l0.18,2.43l1.16,0.83l-0.92,1.66l-1.64,0.65l-6.93,5.6l-4.8,6.35zm17.88,-26.55l0.85,-4.63l-0.25,-2.2l1.63,-0.7l0.66,0.94l-0.54,2.56l-1.41,2.08l0.2,1.17l-1.14,0.78zm-0.45,-24.37l-1.87,-2.02l2.8,-2.39l0.65,1.05l-1.58,3.36z" class="land" id="BR-SC"/>
 </g>
</svg>